<mxfile host="app.diagrams.net" agent="Mozilla/5.0 (Windows NT 10.0; Win64; x64) AppleWebKit/537.36 (KHTML, like Gecko) Chrome/131.0.0.0 Safari/537.36" version="25.0.1">
  <diagram id="C5RBs43oDa-KdzZeNtuy" name="Page-1">
    <mxGraphModel dx="1434" dy="772" grid="1" gridSize="10" guides="1" tooltips="1" connect="1" arrows="1" fold="1" page="1" pageScale="1" pageWidth="827" pageHeight="1169" math="0" shadow="0">
      <root>
        <mxCell id="WIyWlLk6GJQsqaUBKTNV-0" />
        <mxCell id="WIyWlLk6GJQsqaUBKTNV-1" parent="WIyWlLk6GJQsqaUBKTNV-0" />
        <mxCell id="T3SY21zC7IBqgpF7NWJC-28" value="Címzettek" style="rounded=0;whiteSpace=wrap;html=1;" vertex="1" parent="WIyWlLk6GJQsqaUBKTNV-1">
          <mxGeometry x="500" y="960" width="120" height="60" as="geometry" />
        </mxCell>
        <mxCell id="T3SY21zC7IBqgpF7NWJC-29" value="Felhasználók" style="rounded=0;whiteSpace=wrap;html=1;" vertex="1" parent="WIyWlLk6GJQsqaUBKTNV-1">
          <mxGeometry x="60" y="620" width="120" height="60" as="geometry" />
        </mxCell>
        <mxCell id="T3SY21zC7IBqgpF7NWJC-31" value="Csoport" style="rounded=0;whiteSpace=wrap;html=1;" vertex="1" parent="WIyWlLk6GJQsqaUBKTNV-1">
          <mxGeometry x="40" y="900" width="120" height="60" as="geometry" />
        </mxCell>
        <mxCell id="T3SY21zC7IBqgpF7NWJC-32" value="Tagja" style="rounded=0;whiteSpace=wrap;html=1;" vertex="1" parent="WIyWlLk6GJQsqaUBKTNV-1">
          <mxGeometry x="170" y="770" width="120" height="60" as="geometry" />
        </mxCell>
        <mxCell id="T3SY21zC7IBqgpF7NWJC-33" value="Mail címzett" style="rounded=0;whiteSpace=wrap;html=1;" vertex="1" parent="WIyWlLk6GJQsqaUBKTNV-1">
          <mxGeometry x="640" y="790" width="120" height="60" as="geometry" />
        </mxCell>
        <mxCell id="T3SY21zC7IBqgpF7NWJC-34" value="Mail küld" style="rounded=0;whiteSpace=wrap;html=1;" vertex="1" parent="WIyWlLk6GJQsqaUBKTNV-1">
          <mxGeometry x="540" y="650" width="120" height="60" as="geometry" />
        </mxCell>
        <mxCell id="T3SY21zC7IBqgpF7NWJC-37" value="" style="endArrow=classic;html=1;rounded=0;entryX=0.75;entryY=0;entryDx=0;entryDy=0;exitX=0.5;exitY=1;exitDx=0;exitDy=0;" edge="1" parent="WIyWlLk6GJQsqaUBKTNV-1" source="T3SY21zC7IBqgpF7NWJC-32" target="T3SY21zC7IBqgpF7NWJC-31">
          <mxGeometry width="50" height="50" relative="1" as="geometry">
            <mxPoint x="480" y="820" as="sourcePoint" />
            <mxPoint x="440" y="890" as="targetPoint" />
          </mxGeometry>
        </mxCell>
        <mxCell id="T3SY21zC7IBqgpF7NWJC-38" value="" style="endArrow=classic;html=1;rounded=0;exitX=0.5;exitY=0;exitDx=0;exitDy=0;entryX=0.75;entryY=1;entryDx=0;entryDy=0;" edge="1" parent="WIyWlLk6GJQsqaUBKTNV-1" source="T3SY21zC7IBqgpF7NWJC-32" target="T3SY21zC7IBqgpF7NWJC-29">
          <mxGeometry width="50" height="50" relative="1" as="geometry">
            <mxPoint x="470" y="750" as="sourcePoint" />
            <mxPoint x="380" y="690" as="targetPoint" />
          </mxGeometry>
        </mxCell>
        <mxCell id="T3SY21zC7IBqgpF7NWJC-40" value="" style="endArrow=classic;html=1;rounded=0;entryX=0.642;entryY=1.05;entryDx=0;entryDy=0;exitX=0.5;exitY=0;exitDx=0;exitDy=0;entryPerimeter=0;" edge="1" parent="WIyWlLk6GJQsqaUBKTNV-1" source="T3SY21zC7IBqgpF7NWJC-33" target="T3SY21zC7IBqgpF7NWJC-34">
          <mxGeometry width="50" height="50" relative="1" as="geometry">
            <mxPoint x="481" y="824" as="sourcePoint" />
            <mxPoint x="400" y="865" as="targetPoint" />
          </mxGeometry>
        </mxCell>
        <mxCell id="T3SY21zC7IBqgpF7NWJC-41" value="" style="endArrow=classic;html=1;rounded=0;entryX=0.683;entryY=-0.017;entryDx=0;entryDy=0;exitX=0.325;exitY=1.033;exitDx=0;exitDy=0;exitPerimeter=0;entryPerimeter=0;" edge="1" parent="WIyWlLk6GJQsqaUBKTNV-1" source="T3SY21zC7IBqgpF7NWJC-33" target="T3SY21zC7IBqgpF7NWJC-28">
          <mxGeometry width="50" height="50" relative="1" as="geometry">
            <mxPoint x="780" y="1010" as="sourcePoint" />
            <mxPoint x="700" y="880" as="targetPoint" />
          </mxGeometry>
        </mxCell>
        <mxCell id="T3SY21zC7IBqgpF7NWJC-42" value="" style="endArrow=classic;html=1;rounded=0;entryX=1;entryY=0.5;entryDx=0;entryDy=0;exitX=0;exitY=0.75;exitDx=0;exitDy=0;dashed=1;" edge="1" parent="WIyWlLk6GJQsqaUBKTNV-1" source="T3SY21zC7IBqgpF7NWJC-33" target="T3SY21zC7IBqgpF7NWJC-31">
          <mxGeometry width="50" height="50" relative="1" as="geometry">
            <mxPoint x="740" y="820" as="sourcePoint" />
            <mxPoint x="613" y="877" as="targetPoint" />
          </mxGeometry>
        </mxCell>
        <mxCell id="T3SY21zC7IBqgpF7NWJC-43" value="" style="endArrow=classic;html=1;rounded=0;exitX=0;exitY=0.25;exitDx=0;exitDy=0;dashed=1;" edge="1" parent="WIyWlLk6GJQsqaUBKTNV-1" source="T3SY21zC7IBqgpF7NWJC-33" target="T3SY21zC7IBqgpF7NWJC-29">
          <mxGeometry width="50" height="50" relative="1" as="geometry">
            <mxPoint x="640" y="575" as="sourcePoint" />
            <mxPoint x="410" y="640" as="targetPoint" />
          </mxGeometry>
        </mxCell>
      </root>
    </mxGraphModel>
  </diagram>
</mxfile>
